<svg xmlns="http://www.w3.org/2000/svg" width="960" height="264" viewBox="0 0 960 264" role="img" aria-labelledby="title desc">
<title id="title">pew_w158 observed and one-shot response marginals</title>
<desc id="desc">Horizontal bars compare committed weighted survey response shares with one-shot model probability estimates.</desc>
<rect width="100%" height="100%" fill="#ffffff"/>
<style>text{font-family:-apple-system,BlinkMacSystemFont,"Segoe UI",Arial,sans-serif;fill:#203229}.title{font:700 20px Georgia,serif}.question{font:700 15px Georgia,serif}.subtle{fill:#667069;font-size:11px}.label{font-size:12px}.value{font-size:11px;font-variant-numeric:tabular-nums}.grid{stroke:#dfe5e0;stroke-width:1}.track{fill:#eef2ef}</style>
<text class="title" x="24" y="30">Observed survey marginal vs. one-shot prediction</text>
<rect x="24" y="51" width="12" height="12" rx="2" fill="#2563eb"/>
<text class="subtle" x="42" y="61">Observed</text>
<rect x="122" y="51" width="12" height="12" rx="2" fill="#428a5f"/>
<text class="subtle" x="140" y="61">openai:gpt-5.5</text>
<text class="question" x="24" y="112">Do you favor or oppose the following proposals to reduce the effects of global climate ch…</text>
<text class="subtle" x="24" y="131">carbon_tax · weighted observed shares and model probabilities</text>
<line class="grid" x1="260.0" y1="144" x2="260.0" y2="222"/>
<text class="subtle" text-anchor="middle" x="260.0" y="139">0%</text>
<line class="grid" x1="417.0" y1="144" x2="417.0" y2="222"/>
<text class="subtle" text-anchor="middle" x="417.0" y="139">25%</text>
<line class="grid" x1="574.0" y1="144" x2="574.0" y2="222"/>
<text class="subtle" text-anchor="middle" x="574.0" y="139">50%</text>
<line class="grid" x1="731.0" y1="144" x2="731.0" y2="222"/>
<text class="subtle" text-anchor="middle" x="731.0" y="139">75%</text>
<line class="grid" x1="888.0" y1="144" x2="888.0" y2="222"/>
<text class="subtle" text-anchor="middle" x="888.0" y="139">100%</text>
<text class="label" x="24" y="179">Favor</text>
<rect class="track" x="260" y="165" width="628" height="20" rx="3"/>
<rect x="260" y="166.0" width="381.6" height="7.5" rx="1.5" fill="#2563eb"/>
<rect x="260" y="174.5" width="433.3" height="7.5" rx="1.5" fill="#428a5f"/>
<text class="value" x="942" text-anchor="end" y="179">60.8%</text>
<text class="label" x="24" y="209">Oppose</text>
<rect class="track" x="260" y="195" width="628" height="20" rx="3"/>
<rect x="260" y="196.0" width="246.4" height="7.5" rx="1.5" fill="#2563eb"/>
<rect x="260" y="204.5" width="194.7" height="7.5" rx="1.5" fill="#428a5f"/>
<text class="value" x="942" text-anchor="end" y="209">39.2%</text>
<text class="subtle" x="24" y="246">Generated by zwill · observed labels show the committed weighted survey share</text>
</svg>
