<svg xmlns="http://www.w3.org/2000/svg" width="920" height="320" viewBox="0 0 920 320" role="img">
  <style>text{font-family:Arial,sans-serif;fill:#18332f}.title{font-size:21px;font-weight:700}.sub{font-size:12px;fill:#61716e}.label{font-size:14px}.ci{stroke:#52625f;stroke-width:3}.zero{stroke:#9aa8a4;stroke-width:1.5;stroke-dasharray:5 4}.win{fill:#167d61}.other{fill:#b66b13}</style>
  <rect width="920" height="320" fill="#fff" rx="12"/><text class="title" x="24" y="31">Paired bootstrap differences</text><text class="sub" x="24" y="52">GPT-5.5 twin minus conditional XGBoost · 2,000 respondent resamples</text><line class="zero" x1="594" y1="70" x2="594" y2="265"/>
  <text class="label" x="30" y="104">p(actual) ↑</text><line class="ci" x1="543" y1="99" x2="710" y2="99"/><circle class="other" cx="623" cy="99" r="6"/><text class="sub" x="735" y="103">+0.019 [−0.033, +0.075]</text>
  <text class="label" x="30" y="152">NLL ↓</text><line class="ci" x1="112" y1="147" x2="539" y2="147"/><circle class="win" cx="308" cy="147" r="6"/><text class="sub" x="735" y="151">−0.186 [−0.370, −0.034]</text>
  <text class="label" x="30" y="200">Brier ↓</text><line class="ci" x1="393" y1="195" x2="597" y2="195"/><circle class="other" cx="454" cy="195" r="6"/><text class="sub" x="735" y="199">−0.091 [−0.189, +0.002]</text>
  <text class="label" x="30" y="248">Top-1 ↑</text><line class="ci" x1="388" y1="243" x2="777" y2="243"/><circle class="other" cx="591" cy="243" r="6"/><text class="sub" x="735" y="247">−0.002 [−0.135, +0.118]</text>
  <text class="sub" x="104" y="292">−0.40</text><text class="sub" x="594" y="292" text-anchor="middle">0</text><text class="sub" x="778" y="292" text-anchor="end">+0.15</text>
</svg>
